<?xml version="1.0" encoding="UTF-8" standalone="no"?>
<svg
   xmlns:dc="http://purl.org/dc/elements/1.1/"
   xmlns:cc="http://creativecommons.org/ns#"
   xmlns:rdf="http://www.w3.org/1999/02/22-rdf-syntax-ns#"
   xmlns:svg="http://www.w3.org/2000/svg"
   xmlns="http://www.w3.org/2000/svg"
   width="904.33594"
   height="922.79944"
   viewBox="0 0 239.27168 244.15649"
   version="1.1"
   id="svg8">
  <g
     style="display:inline"
     id="layer1"
     transform="translate(-7.9122613,-2.389599)">
    <path
       id="path32"
       d="m 176.7689,173.82025 -98.975642,-10e-6 -49.487815,-85.715417 49.487824,-85.7154156 98.975643,4.9e-6 49.48781,85.7154207 z"
       style="fill:#ac2b37;fill-opacity:1;stroke-width:0.27816623" />
  </g>
  <g
     transform="translate(-7.9122613,82.94368)"
     style="display:inline"
     id="layer2">
    <g
       transform="translate(127.28108,2.7714802)"
       id="g848">
      <path
         d="m 72.90834,-5.32467 5.30845,1.2255 5.3119,2.41189 v 3.37456 l -5.3119,2.41189 -5.30845,1.2255 -0.48616,4.62552 4.93765,2.3024 4.69437,3.46359 -0.70161,3.30082 -5.69729,1.25478 -5.44724,0.09503 -1.43724,4.42336 4.35105,3.27869 3.87167,4.36391 -1.37256,3.08282 -5.83367,0.04282 -5.34796,-1.03959 -2.3255,4.02788 3.57429,4.11168 2.87975,5.07352 -1.98352,2.73007 -5.71509,-1.171 -5.01495,-2.12878 -3.11213,3.45637 2.64132,4.76496 1.76198,5.56139 -2.50779,2.25802 -5.34674,-2.33365 -4.46277,-3.12493 -3.76273,2.73379 1.59291,5.21 0.5672,5.80619 -2.92246,1.68728 -4.74471,-3.3943 -3.71554,-3.9845 -4.24889,1.89173 0.47488,5.42733 -0.65237,5.79724 -3.2094,1.0428 -3.93531,-4.30661 -2.80592,-4.66994 -4.54937,0.967 -0.6639,5.40747 -1.84343,5.53492 -3.35607,0.35274 -2.95392,-5.0307 -1.77367,-5.15127 h -4.651 l -1.77367,5.15127 -2.95392,5.0307 -3.35607,-0.35274 -1.84343,-5.53492 -0.6639,-5.40747 -4.54937,-0.967 -2.80592,4.66994 -3.93531,4.30661 -3.2094,-1.0428 -0.65237,-5.79724 0.47488,-5.42733 -4.24889,-1.89173 -3.71554,3.9845 -4.74471,3.3943 -2.92246,-1.68728 0.5672,-5.80619 1.59291,-5.21 -3.76273,-2.73379 -4.46277,3.12493 -5.34674,2.33365 -2.50779,-2.25802 1.76198,-5.56139 2.64132,-4.76496 -3.11213,-3.45637 -5.01495,2.12878 -5.71509,1.171 -1.98352,-2.73007 2.87975,-5.07352 3.57429,-4.11168 -2.3255,-4.02788 -5.34796,1.03959 -5.83367,-0.04282 -1.37256,-3.08282 3.87167,-4.36391 4.35105,-3.27869 -1.43724,-4.42336 -5.44724,-0.09503 -5.69729,-1.25478 -0.70161,-3.30082 4.69437,-3.46359 4.93765,-2.3024 -0.48616,-4.62552 -5.30845,-1.2255 -5.3119,-2.41189 v -3.37456 l 5.3119,-2.41189 5.30845,-1.2255 0.48616,-4.62552 -4.93765,-2.3024 -4.69437,-3.46359 0.70161,-3.30082 5.69729,-1.25478 5.44724,-0.09503 1.43724,-4.42336 -4.35105,-3.27869 -3.87167,-4.36391 1.37256,-3.08282 5.83367,-0.04282 5.34796,1.03959 2.3255,-4.02788 -3.57429,-4.11168 -2.87975,-5.07352 1.98352,-2.73007 5.71509,1.171 5.01495,2.12878 3.11213,-3.45637 -2.64132,-4.76496 -1.76198,-5.56139 2.50779,-2.25802 5.34674,2.33365 4.46277,3.12493 3.76273,-2.73379 -1.59291,-5.21 -0.5672,-5.80619 2.92246,-1.68728 4.74471,3.3943 3.71554,3.9845 4.24889,-1.89173 -0.47488,-5.42733 0.65237,-5.79724 3.2094,-1.0428 3.93531,4.30661 2.80592,4.66994 4.54937,-0.967 0.6639,-5.40747 1.84343,-5.53492 3.35607,-0.35274 2.95392,5.0307 1.77367,5.15127 h 4.651 l 1.77367,-5.15127 2.95392,-5.0307 3.35607,0.35274 1.84343,5.53492 0.6639,5.40747 4.54937,0.967 2.80592,-4.66994 3.93531,-4.30661 3.2094,1.0428 0.65237,5.79724 -0.47488,5.42733 4.24889,1.89173 3.71554,-3.9845 4.74471,-3.3943 2.92246,1.68728 -0.5672,5.80619 -1.59291,5.21 3.76273,2.73379 4.46277,-3.12493 5.34674,-2.33365 2.50779,2.25802 -1.76198,5.56139 -2.64132,4.76496 3.11213,3.45637 5.01495,-2.12878 5.71509,-1.171 1.98352,2.73007 -2.87975,5.07352 -3.57429,4.11168 2.3255,4.02788 5.34796,-1.03959 5.83367,0.04282 1.37256,3.08282 -3.87167,4.36391 -4.35105,3.27869 1.43724,4.42336 5.44724,0.09503 5.69729,1.25478 0.70161,3.30082 -4.69437,3.46359 -4.93765,2.3024 z"
         style="fill:#262626;fill-opacity:1;stroke:#000000;stroke-width:0.26458332"
         id="path844" />
    </g>
  </g>
  <g
     style="display:inline"
     transform="translate(-1.5669633,102.61871)"
     id="layer3">
    <g
       id="text4529"
       style="font-style:normal;font-variant:normal;font-weight:normal;font-stretch:normal;font-size:25.3999424px;line-height:125%;font-family:sans-serif;-inkscape-font-specification:sans-serif;letter-spacing:0px;word-spacing:0px;fill:#262626;fill-opacity:1;stroke:none;stroke-width:0.26458272px;stroke-linecap:butt;stroke-linejoin:miter;stroke-opacity:1"
       aria-label="WPILib">
      <path
         id="path34"
         style="font-style:normal;font-variant:normal;font-weight:bold;font-stretch:normal;font-size:63.49985886px;line-height:100%;font-family:'DejaVu Sans';-inkscape-font-specification:'DejaVu Sans Bold';text-align:center;letter-spacing:-0.79374826px;text-anchor:middle;fill:#262626;fill-opacity:1;stroke-width:0.26458272px"
         d="M 1.5669633,94.347088 H 13.0081 l 7.999494,33.641282 7.937482,-33.641282 h 11.503149 l 7.937482,33.641282 7.999494,-33.641282 H 67.73332 L 56.819282,140.63873 H 43.052711 L 34.650142,105.44716 26.34059,140.63873 H 12.574019 Z" />
      <path
         id="path36"
         style="font-style:normal;font-variant:normal;font-weight:bold;font-stretch:normal;font-size:63.49985886px;line-height:100%;font-family:'DejaVu Sans';-inkscape-font-specification:'DejaVu Sans Bold';text-align:center;letter-spacing:-0.79374826px;text-anchor:middle;fill:#262626;fill-opacity:1;stroke-width:0.26458272px"
         d="m 74.784041,94.347088 h 19.8127 q 8.836649,0 13.549529,3.937735 4.74389,3.906727 4.74389,11.162087 0,7.28636 -4.74389,11.22409 -4.71288,3.90673 -13.549529,3.90673 h -7.87547 v 16.061 h -11.93723 z m 11.93723,8.650612 v 12.92942 h 6.604233 q 3.472649,0 5.364002,-1.67431 1.891354,-1.70532 1.891354,-4.8059 0,-3.10058 -1.891354,-4.77489 -1.891353,-1.67432 -5.364002,-1.67432 z" />
      <path
         id="path38"
         style="font-style:normal;font-variant:normal;font-weight:bold;font-stretch:normal;font-size:63.49985886px;line-height:100%;font-family:'DejaVu Sans';-inkscape-font-specification:'DejaVu Sans Bold';text-align:center;letter-spacing:-0.79374826px;text-anchor:middle;fill:#262626;fill-opacity:1;stroke-width:0.26458272px"
         d="m 120.49898,94.347088 h 11.93723 v 46.291642 h -11.93723 z" />
      <path
         id="path40"
         style="font-style:normal;font-variant:normal;font-weight:bold;font-stretch:normal;font-size:63.49985886px;line-height:100%;font-family:'DejaVu Sans';-inkscape-font-specification:'DejaVu Sans Bold';text-align:center;letter-spacing:-0.79374826px;text-anchor:middle;fill:#262626;fill-opacity:1;stroke-width:0.26458272px"
         d="m 143.39365,94.347088 h 11.93722 v 37.268962 h 20.95992 v 9.02268 h -32.89714 z" />
      <path
         id="path42"
         style="font-style:normal;font-variant:normal;font-weight:bold;font-stretch:normal;font-size:63.49985886px;line-height:100%;font-family:'DejaVu Sans';-inkscape-font-specification:'DejaVu Sans Bold';text-align:center;letter-spacing:-0.79374826px;text-anchor:middle;fill:#262626;fill-opacity:1;stroke-width:0.26458272px"
         d="m 182.53535,105.91225 h 11.10008 v 34.72648 h -11.10008 z m 0,-13.518527 h 11.10008 v 9.053687 h -11.10008 z" />
      <path
         id="path44"
         style="font-style:normal;font-variant:normal;font-weight:bold;font-stretch:normal;font-size:63.49985886px;line-height:100%;font-family:'DejaVu Sans';-inkscape-font-specification:'DejaVu Sans Bold';text-align:center;letter-spacing:-0.79374826px;text-anchor:middle;fill:#262626;fill-opacity:1;stroke-width:0.26458272px"
         d="m 222.04914,133.4764 q 3.56566,0 5.42601,-2.60449 1.89135,-2.60449 1.89135,-7.56541 0,-4.96093 -1.89135,-7.56542 -1.86035,-2.60448 -5.42601,-2.60448 -3.56567,0 -5.48803,2.63549 -1.89135,2.60449 -1.89135,7.53441 0,4.92992 1.89135,7.56541 1.92236,2.60449 5.48803,2.60449 z m -7.37938,-22.4792 q 2.29443,-3.03857 5.08495,-4.46484 2.79052,-1.45727 6.4182,-1.45727 6.4182,0 10.54197,5.11596 4.12377,5.08495 4.12377,13.11545 0,8.0305 -4.12377,13.14645 -4.12377,5.08495 -10.54197,5.08495 -3.62768,0 -6.4182,-1.42627 -2.79052,-1.45727 -5.08495,-4.49584 v 5.02294 H 203.56969 V 92.393723 h 11.10007 z" />
    </g>
    <g
       id="g7"
       style="display:inline"
       transform="translate(15.614844,-122.29229)">
      <path
         id="path4489"
         style="font-weight:bold;fill:#a9b0b7;fill-opacity:1;stroke-width:1.0990752px"
         d="M 50.350001,69.576383 H 69.360568 L 82.652509,125.47466 95.841412,69.576383 h 19.113608 l 13.1889,55.898277 13.29194,-55.898277 h 18.85601 l -18.13474,76.918097 h -22.8745 L 105.32094,88.020239 91.513803,146.49448 H 68.6393 Z" />
    </g>
    <g
       id="text19"
       style="font-style:normal;font-variant:normal;font-weight:normal;font-stretch:normal;font-size:25.40000153px;line-height:125%;font-family:sans-serif;-inkscape-font-specification:sans-serif;letter-spacing:0px;word-spacing:0px;fill:#000000;fill-opacity:1;stroke:none;stroke-width:0.26458335px;stroke-linecap:butt;stroke-linejoin:miter;stroke-opacity:1" />
    <g
       id="text29"
       style="font-style:normal;font-variant:normal;font-weight:normal;font-stretch:normal;font-size:25.40000153px;line-height:125%;font-family:sans-serif;-inkscape-font-specification:sans-serif;letter-spacing:0px;word-spacing:0px;fill:#000000;fill-opacity:1;stroke:none;stroke-width:0.26458335px;stroke-linecap:butt;stroke-linejoin:miter;stroke-opacity:1" />
    <g
       id="text35"
       style="font-style:normal;font-variant:normal;font-weight:normal;font-stretch:normal;font-size:25.40000153px;line-height:125%;font-family:sans-serif;-inkscape-font-specification:sans-serif;letter-spacing:0px;word-spacing:0px;fill:#000000;fill-opacity:1;stroke:none;stroke-width:0.26458335px;stroke-linecap:butt;stroke-linejoin:miter;stroke-opacity:1" />
    <g
       id="text52"
       style="font-style:normal;font-variant:normal;font-weight:bold;font-stretch:normal;font-size:25.3999424px;line-height:125%;font-family:sans-serif;-inkscape-font-specification:'sans-serif Bold';letter-spacing:0px;word-spacing:0px;fill:#000000;fill-opacity:1;stroke:none;stroke-width:0.26458272px;stroke-linecap:butt;stroke-linejoin:miter;stroke-opacity:1" />
    <g
       id="flowRoot66"
       style="font-style:normal;font-variant:normal;font-weight:normal;font-stretch:normal;font-size:96px;line-height:125%;font-family:sans-serif;-inkscape-font-specification:sans-serif;letter-spacing:0px;word-spacing:0px;fill:#000000;fill-opacity:1;stroke:none;stroke-width:1px;stroke-linecap:butt;stroke-linejoin:miter;stroke-opacity:1" />
    <g
       id="text4514"
       style="font-style:normal;font-variant:normal;font-weight:normal;font-stretch:normal;font-size:25.3999424px;line-height:125%;font-family:sans-serif;-inkscape-font-specification:sans-serif;letter-spacing:0px;word-spacing:0px;fill:#000000;fill-opacity:1;stroke:none;stroke-width:0.26458272px;stroke-linecap:butt;stroke-linejoin:miter;stroke-opacity:1" />
  </g>
</svg>
